<svg xmlns="http://www.w3.org/2000/svg" viewBox="0 0 1422 800">
  <defs>
    <linearGradient id="a" x1="50%" x2="50%" y1="0%" y2="100%">
      <stop offset="0%" stop-color="hsl(230, 55%, 50%)"/>
      <stop offset="100%" stop-color="hsl(230, 55%, 70%)"/>
    </linearGradient>
  </defs>
  <g fill="none" stroke="url(#a)" strokeLinecap="round" strokeWidth="2.5">
    <path stroke-dasharray="94 43" d="M0 660q355.5-260 711-260t711 260" opacity=".48"/>
    <path stroke-dasharray="38 35" d="M0 640q355.5-240 711-240t711 240" opacity=".9"/>
    <path stroke-dasharray="142 124" d="M0 620q355.5-220 711-220t711 220" opacity=".19"/>
    <path stroke-dasharray="16 87" d="M0 600q355.5-200 711-200t711 200" opacity=".85"/>
    <path stroke-dasharray="7 139" d="M0 580q355.5-180 711-180t711 180" opacity=".21"/>
    <path stroke-dasharray="93 62" d="M0 560q355.5-160 711-160t711 160" opacity=".87"/>
    <path stroke-dasharray="97 148" d="M0 540q355.5-140 711-140t711 140" opacity=".38"/>
    <path stroke-dasharray="147 40" d="M0 520q355.5-120 711-120t711 120" opacity=".58"/>
    <path stroke-dasharray="127 141" d="M0 500q355.5-100 711-100t711 100"/>
    <path stroke-dasharray="69 120" d="M0 480q355.5-80 711-80t711 80" opacity=".42"/>
    <path stroke-dasharray="107 131" d="M0 460q355.5-60 711-60t711 60" opacity=".17"/>
    <path stroke-dasharray="52 132" d="M0 440q355.5-40 711-40t711 40" opacity=".64"/>
    <path stroke-dasharray="25 146" d="M0 420q355.5-20 711-20t711 20" opacity=".71"/>
    <path stroke-dasharray="46 38" d="M0 400h1422" opacity=".24"/>
    <path stroke-dasharray="87 23" d="M0 380q355.5 20 711 20t711-20" opacity=".84"/>
    <path stroke-dasharray="83 117" d="M0 360q355.5 40 711 40t711-40" opacity=".55"/>
    <path stroke-dasharray="97 73" d="M0 340q355.5 60 711 60t711-60" opacity=".87"/>
    <path stroke-dasharray="0 148" d="M0 320q355.5 80 711 80t711-80" opacity=".35"/>
    <path stroke-dasharray="61 57" d="M0 300q355.5 100 711 100t711-100" opacity=".23"/>
    <path stroke-dasharray="43 131" d="M0 280q355.5 120 711 120t711-120" opacity=".35"/>
    <path stroke-dasharray="109 107" d="M0 260q355.5 140 711 140t711-140" opacity=".46"/>
    <path stroke-dasharray="141 30" d="M0 240q355.5 160 711 160t711-160" opacity=".9"/>
    <path stroke-dasharray="92 109" d="M0 220q355.5 180 711 180t711-180" opacity=".81"/>
    <path stroke-dasharray="91 126" d="M0 200q355.5 200 711 200t711-200" opacity=".7"/>
    <path stroke-dasharray="6 62" d="M0 180q355.5 220 711 220t711-220" opacity=".29"/>
    <path stroke-dasharray="33 16" d="M0 160q355.5 240 711 240t711-240" opacity=".16"/>
    <path stroke-dasharray="1 5" d="M0 140q355.5 260 711 260t711-260" opacity=".5"/>
    <path stroke-dasharray="57 11" d="M0 120q355.5 280 711 280t711-280" opacity=".13"/>
    <path stroke-dasharray="106 54" d="M0 100q355.5 300 711 300t711-300" opacity=".99"/>
    <path stroke-dasharray="35 32" d="M0 80q355.5 320 711 320t711-320" opacity=".43"/>
    <path stroke-dasharray="18 88" d="M0 60q355.5 340 711 340t711-340" opacity=".69"/>
    <path stroke-dasharray="121 104" d="M0 40q355.5 360 711 360t711-360" opacity=".31"/>
  </g>
</svg>
