<!DOCTYPE svg PUBLIC "-//W3C//DTD SVG 1.1//EN" "http://www.w3.org/Graphics/SVG/1.1/DTD/svg11.dtd">

<!-- Uploaded to: SVG Repo, www.svgrepo.com, Transformed by: SVG Repo Mixer Tools -->
<svg fill="#c1bf9e" width="105px" height="105px" viewBox="-3.2 -3.2 38.40 38.40" version="1.1" xmlns="http://www.w3.org/2000/svg" stroke="#2582ea" stroke-width="0.00032" transform="matrix(1, 0, 0, 1, 0, 0)">

<g id="SVGRepo_bgCarrier" stroke-width="0"/>

<g id="SVGRepo_tracerCarrier" stroke-linecap="round" stroke-linejoin="round"/>

<g id="SVGRepo_iconCarrier"> <path d="M0.844 6.050c-0.256-0.256-0.381-0.581-0.381-0.975s0.125-0.719 0.381-0.975 0.581-0.381 0.975-0.381h28.512c0.394 0 0.719 0.125 0.975 0.381s0.381 0.581 0.381 0.975-0.125 0.719-0.381 0.975-0.581 0.381-0.975 0.381h-28.512c-0.394 0-0.719-0.125-0.975-0.381zM31.306 14.963c0.256 0.256 0.381 0.581 0.381 0.975s-0.125 0.719-0.381 0.975-0.581 0.381-0.975 0.381h-28.512c-0.394 0-0.719-0.125-0.975-0.381s-0.381-0.581-0.381-0.975 0.125-0.719 0.381-0.975 0.581-0.381 0.975-0.381h28.512c0.394 0 0.719 0.125 0.975 0.381zM31.306 25.819c0.256 0.256 0.381 0.581 0.381 0.975s-0.125 0.719-0.381 0.975-0.581 0.381-0.975 0.381h-28.512c-0.394 0-0.719-0.125-0.975-0.381s-0.381-0.581-0.381-0.975 0.125-0.719 0.381-0.975 0.581-0.381 0.975-0.381h28.512c0.394 0 0.719 0.131 0.975 0.381z"/> </g>

</svg>